<mxfile host="app.diagrams.net" agent="Mozilla/5.0 (Windows NT 10.0; Win64; x64; rv:139.0) Gecko/20100101 Firefox/139.0" version="27.1.1">
  <diagram name="Page-1" id="BOxKDiXI7Fbe3Ra81NgB">
    <mxGraphModel dx="1234" dy="681" grid="1" gridSize="10" guides="1" tooltips="1" connect="1" arrows="1" fold="1" page="1" pageScale="1" pageWidth="850" pageHeight="1100" math="0" shadow="0">
      <root>
        <mxCell id="0" />
        <mxCell id="1" parent="0" />
        <mxCell id="979w7kpSlVesmbvi4N0z-1" value="rest. Customer" style="shape=umlActor;verticalLabelPosition=bottom;verticalAlign=top;html=1;outlineConnect=0;" vertex="1" parent="1">
          <mxGeometry x="110" y="280" width="30" height="60" as="geometry" />
        </mxCell>
        <mxCell id="979w7kpSlVesmbvi4N0z-2" value="" style="endArrow=classic;html=1;rounded=0;exitX=0.5;exitY=0.5;exitDx=0;exitDy=0;exitPerimeter=0;entryX=0.228;entryY=0.783;entryDx=0;entryDy=0;entryPerimeter=0;" edge="1" parent="1" source="979w7kpSlVesmbvi4N0z-1" target="979w7kpSlVesmbvi4N0z-3">
          <mxGeometry width="50" height="50" relative="1" as="geometry">
            <mxPoint x="400" y="370" as="sourcePoint" />
            <mxPoint x="270" y="300" as="targetPoint" />
          </mxGeometry>
        </mxCell>
        <mxCell id="979w7kpSlVesmbvi4N0z-3" value="HomepageScreen" style="shape=umlBoundary;whiteSpace=wrap;html=1;" vertex="1" parent="1">
          <mxGeometry x="290" y="250" width="130" height="70" as="geometry" />
        </mxCell>
        <mxCell id="979w7kpSlVesmbvi4N0z-4" value="" style="endArrow=classic;html=1;rounded=0;exitX=0.983;exitY=0.474;exitDx=0;exitDy=0;exitPerimeter=0;entryX=0.246;entryY=0.177;entryDx=0;entryDy=0;entryPerimeter=0;" edge="1" parent="1" source="979w7kpSlVesmbvi4N0z-3" target="979w7kpSlVesmbvi4N0z-5">
          <mxGeometry width="50" height="50" relative="1" as="geometry">
            <mxPoint x="420" y="395" as="sourcePoint" />
            <mxPoint x="510" y="283" as="targetPoint" />
          </mxGeometry>
        </mxCell>
        <mxCell id="979w7kpSlVesmbvi4N0z-5" value="&lt;i&gt;RateFood&lt;br&gt;&lt;/i&gt;Screen" style="shape=umlBoundary;whiteSpace=wrap;html=1;" vertex="1" parent="1">
          <mxGeometry x="500" y="275" width="130" height="70" as="geometry" />
        </mxCell>
        <mxCell id="979w7kpSlVesmbvi4N0z-6" value="SelectDish" style="ellipse;shape=umlControl;whiteSpace=wrap;html=1;" vertex="1" parent="1">
          <mxGeometry x="670" y="230" width="110" height="80" as="geometry" />
        </mxCell>
        <mxCell id="979w7kpSlVesmbvi4N0z-7" value="" style="endArrow=classic;html=1;rounded=0;exitX=0.954;exitY=0.683;exitDx=0;exitDy=0;exitPerimeter=0;" edge="1" parent="1" source="979w7kpSlVesmbvi4N0z-5" target="979w7kpSlVesmbvi4N0z-6">
          <mxGeometry width="50" height="50" relative="1" as="geometry">
            <mxPoint x="530" y="430" as="sourcePoint" />
            <mxPoint x="644" y="434" as="targetPoint" />
          </mxGeometry>
        </mxCell>
        <mxCell id="979w7kpSlVesmbvi4N0z-8" value="" style="endArrow=classic;html=1;rounded=0;exitX=0.822;exitY=0.927;exitDx=0;exitDy=0;exitPerimeter=0;entryX=0.078;entryY=0.353;entryDx=0;entryDy=0;entryPerimeter=0;" edge="1" parent="1" source="979w7kpSlVesmbvi4N0z-5" target="979w7kpSlVesmbvi4N0z-9">
          <mxGeometry width="50" height="50" relative="1" as="geometry">
            <mxPoint x="640" y="480" as="sourcePoint" />
            <mxPoint x="690" y="410" as="targetPoint" />
          </mxGeometry>
        </mxCell>
        <mxCell id="979w7kpSlVesmbvi4N0z-9" value="SelectRating" style="ellipse;shape=umlControl;whiteSpace=wrap;html=1;" vertex="1" parent="1">
          <mxGeometry x="700" y="390" width="110" height="80" as="geometry" />
        </mxCell>
        <mxCell id="979w7kpSlVesmbvi4N0z-10" value="Dishes" style="ellipse;shape=umlEntity;whiteSpace=wrap;html=1;" vertex="1" parent="1">
          <mxGeometry x="690" y="90" width="80" height="80" as="geometry" />
        </mxCell>
        <mxCell id="979w7kpSlVesmbvi4N0z-11" value="" style="endArrow=classic;html=1;rounded=0;exitX=0.195;exitY=0.204;exitDx=0;exitDy=0;exitPerimeter=0;entryX=0.255;entryY=0.986;entryDx=0;entryDy=0;entryPerimeter=0;" edge="1" parent="1" source="979w7kpSlVesmbvi4N0z-6" target="979w7kpSlVesmbvi4N0z-10">
          <mxGeometry width="50" height="50" relative="1" as="geometry">
            <mxPoint x="620" y="240" as="sourcePoint" />
            <mxPoint x="676" y="210" as="targetPoint" />
          </mxGeometry>
        </mxCell>
        <mxCell id="979w7kpSlVesmbvi4N0z-12" value="Rating" style="ellipse;shape=umlEntity;whiteSpace=wrap;html=1;" vertex="1" parent="1">
          <mxGeometry x="670" y="510" width="80" height="80" as="geometry" />
        </mxCell>
        <mxCell id="979w7kpSlVesmbvi4N0z-13" value="" style="endArrow=classic;html=1;rounded=0;exitX=0;exitY=0;exitDx=0;exitDy=0;entryX=0.063;entryY=0.814;entryDx=0;entryDy=0;entryPerimeter=0;" edge="1" parent="1" source="979w7kpSlVesmbvi4N0z-12" target="979w7kpSlVesmbvi4N0z-9">
          <mxGeometry width="50" height="50" relative="1" as="geometry">
            <mxPoint x="640" y="527" as="sourcePoint" />
            <mxPoint x="659" y="450" as="targetPoint" />
          </mxGeometry>
        </mxCell>
        <mxCell id="979w7kpSlVesmbvi4N0z-14" value="Are Options&lt;br&gt;Empty?" style="ellipse;shape=umlControl;whiteSpace=wrap;html=1;" vertex="1" parent="1">
          <mxGeometry x="870" y="290" width="110" height="80" as="geometry" />
        </mxCell>
        <mxCell id="979w7kpSlVesmbvi4N0z-15" value="" style="endArrow=classic;html=1;rounded=0;entryX=0.137;entryY=0.297;entryDx=0;entryDy=0;entryPerimeter=0;" edge="1" parent="1" source="979w7kpSlVesmbvi4N0z-6" target="979w7kpSlVesmbvi4N0z-14">
          <mxGeometry width="50" height="50" relative="1" as="geometry">
            <mxPoint x="820" y="427" as="sourcePoint" />
            <mxPoint x="839" y="350" as="targetPoint" />
          </mxGeometry>
        </mxCell>
        <mxCell id="979w7kpSlVesmbvi4N0z-16" value="" style="endArrow=classic;html=1;rounded=0;exitX=0.979;exitY=0.386;exitDx=0;exitDy=0;exitPerimeter=0;entryX=0.244;entryY=0.939;entryDx=0;entryDy=0;entryPerimeter=0;" edge="1" parent="1" source="979w7kpSlVesmbvi4N0z-9" target="979w7kpSlVesmbvi4N0z-14">
          <mxGeometry width="50" height="50" relative="1" as="geometry">
            <mxPoint x="830" y="400" as="sourcePoint" />
            <mxPoint x="924" y="437" as="targetPoint" />
          </mxGeometry>
        </mxCell>
        <mxCell id="979w7kpSlVesmbvi4N0z-17" value="" style="endArrow=classic;html=1;rounded=0;entryX=-0.008;entryY=0.656;entryDx=0;entryDy=0;entryPerimeter=0;exitX=1;exitY=0.375;exitDx=0;exitDy=0;exitPerimeter=0;" edge="1" parent="1" source="979w7kpSlVesmbvi4N0z-14" target="979w7kpSlVesmbvi4N0z-20">
          <mxGeometry width="50" height="50" relative="1" as="geometry">
            <mxPoint x="1000" y="260" as="sourcePoint" />
            <mxPoint x="1108" y="290" as="targetPoint" />
          </mxGeometry>
        </mxCell>
        <mxCell id="979w7kpSlVesmbvi4N0z-18" value="" style="endArrow=classic;html=1;rounded=0;exitX=0.807;exitY=0.916;exitDx=0;exitDy=0;exitPerimeter=0;" edge="1" parent="1" source="979w7kpSlVesmbvi4N0z-14">
          <mxGeometry width="50" height="50" relative="1" as="geometry">
            <mxPoint x="1010" y="290" as="sourcePoint" />
            <mxPoint x="1050" y="440" as="targetPoint" />
          </mxGeometry>
        </mxCell>
        <mxCell id="979w7kpSlVesmbvi4N0z-19" value="&lt;i&gt;Please Select Page&lt;/i&gt;" style="shape=umlBoundary;whiteSpace=wrap;html=1;" vertex="1" parent="1">
          <mxGeometry x="990" y="440" width="130" height="70" as="geometry" />
        </mxCell>
        <mxCell id="979w7kpSlVesmbvi4N0z-20" value="Record Rating" style="ellipse;shape=umlControl;whiteSpace=wrap;html=1;" vertex="1" parent="1">
          <mxGeometry x="1110" y="210" width="110" height="80" as="geometry" />
        </mxCell>
      </root>
    </mxGraphModel>
  </diagram>
</mxfile>
